<svg xmlns="http://www.w3.org/2000/svg" viewBox="0 0 1200 1500" width="1200" height="1500" preserveAspectRatio="xMidYMid slice"><defs></defs><rect width="1200" height="1500" fill="#0A0908"/><line x1="100" y1="0" x2="100" y2="1500" stroke="#B8430F" stroke-width="1" stroke-opacity="0.16"/><line x1="200" y1="0" x2="200" y2="1500" stroke="#B8430F" stroke-width="1" stroke-opacity="0.16"/><line x1="300" y1="0" x2="300" y2="1500" stroke="#B8430F" stroke-width="1" stroke-opacity="0.16"/><line x1="400" y1="0" x2="400" y2="1500" stroke="#B8430F" stroke-width="1" stroke-opacity="0.16"/><line x1="500" y1="0" x2="500" y2="1500" stroke="#B8430F" stroke-width="1" stroke-opacity="0.16"/><line x1="600" y1="0" x2="600" y2="1500" stroke="#B8430F" stroke-width="1" stroke-opacity="0.16"/><line x1="700" y1="0" x2="700" y2="1500" stroke="#B8430F" stroke-width="1" stroke-opacity="0.16"/><line x1="800" y1="0" x2="800" y2="1500" stroke="#B8430F" stroke-width="1" stroke-opacity="0.16"/><line x1="900" y1="0" x2="900" y2="1500" stroke="#B8430F" stroke-width="1" stroke-opacity="0.16"/><line x1="1000" y1="0" x2="1000" y2="1500" stroke="#B8430F" stroke-width="1" stroke-opacity="0.16"/><line x1="1100" y1="0" x2="1100" y2="1500" stroke="#B8430F" stroke-width="1" stroke-opacity="0.16"/><rect x="600" y="483" width="200" height="137" rx="8" fill="none" stroke="#B8430F" stroke-width="1.4" stroke-opacity="0.22"/><rect x="0" y="612" width="400" height="93" rx="8" fill="none" stroke="#B8430F" stroke-width="1.4" stroke-opacity="0.22"/><rect x="700" y="640" width="400" height="112" rx="8" fill="none" stroke="#F2895C" stroke-width="2.2" stroke-opacity="0.45"/><rect x="712" y="652" width="376" height="6" rx="3" fill="#F2895C" opacity="0.43"/><rect x="200" y="1267" width="100" height="66" rx="8" fill="none" stroke="#B8430F" stroke-width="1.4" stroke-opacity="0.22"/><rect x="200" y="441" width="400" height="60" rx="8" fill="none" stroke="#F2895C" stroke-width="2.2" stroke-opacity="0.45"/><rect x="212" y="453" width="376" height="6" rx="3" fill="#F2895C" opacity="0.43"/><rect x="900" y="956" width="100" height="171" rx="8" fill="none" stroke="#F2895C" stroke-width="2.2" stroke-opacity="0.45"/><rect x="912" y="968" width="76" height="6" rx="3" fill="#F2895C" opacity="0.43"/><rect x="700" y="1011" width="400" height="162" rx="8" fill="none" stroke="#B8430F" stroke-width="1.4" stroke-opacity="0.22"/><rect x="700" y="151" width="400" height="103" rx="8" fill="none" stroke="#B8430F" stroke-width="1.4" stroke-opacity="0.22"/><rect x="0" y="845" width="400" height="167" rx="8" fill="none" stroke="#B8430F" stroke-width="1.4" stroke-opacity="0.22"/><rect x="800" y="10" width="100" height="95" rx="8" fill="none" stroke="#B8430F" stroke-width="1.4" stroke-opacity="0.22"/><rect x="400" y="1025" width="100" height="160" rx="8" fill="none" stroke="#B8430F" stroke-width="1.4" stroke-opacity="0.22"/><rect x="100" y="1136" width="100" height="47" rx="8" fill="none" stroke="#B8430F" stroke-width="1.4" stroke-opacity="0.22"/><rect x="100" y="660" width="400" height="131" rx="8" fill="none" stroke="#F2895C" stroke-width="2.2" stroke-opacity="0.45"/><rect x="112" y="672" width="376" height="6" rx="3" fill="#F2895C" opacity="0.43"/><rect x="700" y="651" width="300" height="68" rx="8" fill="none" stroke="#B8430F" stroke-width="1.4" stroke-opacity="0.22"/><rect x="500" y="1268" width="100" height="152" rx="8" fill="none" stroke="#B8430F" stroke-width="1.4" stroke-opacity="0.22"/><rect x="500" y="889" width="400" height="103" rx="8" fill="none" stroke="#B8430F" stroke-width="1.4" stroke-opacity="0.22"/><rect x="300" y="1019" width="200" height="187" rx="8" fill="none" stroke="#B8430F" stroke-width="1.4" stroke-opacity="0.22"/><rect x="800" y="1101" width="300" height="59" rx="8" fill="none" stroke="#F2895C" stroke-width="2.2" stroke-opacity="0.45"/><rect x="812" y="1113" width="276" height="6" rx="3" fill="#F2895C" opacity="0.43"/><rect x="1000" y="946" width="100" height="106" rx="8" fill="none" stroke="#B8430F" stroke-width="1.4" stroke-opacity="0.22"/><rect x="200" y="1151" width="300" height="153" rx="8" fill="none" stroke="#B8430F" stroke-width="1.4" stroke-opacity="0.22"/><rect x="500" y="1132" width="400" height="51" rx="8" fill="none" stroke="#B8430F" stroke-width="1.4" stroke-opacity="0.22"/><rect x="200" y="94" width="300" height="156" rx="8" fill="none" stroke="#F2895C" stroke-width="2.2" stroke-opacity="0.45"/><rect x="212" y="106" width="276" height="6" rx="3" fill="#F2895C" opacity="0.43"/><radialGradient id="bl" cx="0.2" cy="0.3" r="0.8"><stop offset="0" stop-color="#B8430F" stop-opacity="0.42"/><stop offset="1" stop-color="#0A0908" stop-opacity="0"/></radialGradient><rect width="1200" height="1500" fill="url(#bl)"/><linearGradient id="vg2" x1="0" y1="1" x2="0" y2="0"><stop offset="0" stop-color="#0A0908" stop-opacity="0.88"/><stop offset="0.34" stop-color="#0A0908" stop-opacity="0.34"/><stop offset="0.72" stop-color="#0A0908" stop-opacity="0"/></linearGradient><rect width="1200" height="1500" fill="url(#vg2)"/></svg>