<svg xmlns="http://www.w3.org/2000/svg" viewBox="0 0 1200 900" width="1200" height="900" preserveAspectRatio="xMidYMid slice"><defs></defs><rect width="1200" height="900" fill="#0A0908"/><line x1="0" y1="34" x2="1200" y2="34" stroke="#B8430F" stroke-width="1" stroke-opacity="0.11"/><line x1="0" y1="68" x2="1200" y2="68" stroke="#B8430F" stroke-width="1" stroke-opacity="0.11"/><line x1="0" y1="102" x2="1200" y2="102" stroke="#B8430F" stroke-width="1" stroke-opacity="0.11"/><line x1="0" y1="136" x2="1200" y2="136" stroke="#B8430F" stroke-width="1" stroke-opacity="0.11"/><line x1="0" y1="170" x2="1200" y2="170" stroke="#B8430F" stroke-width="1" stroke-opacity="0.11"/><line x1="0" y1="204" x2="1200" y2="204" stroke="#B8430F" stroke-width="1" stroke-opacity="0.11"/><line x1="0" y1="238" x2="1200" y2="238" stroke="#B8430F" stroke-width="1" stroke-opacity="0.11"/><line x1="0" y1="272" x2="1200" y2="272" stroke="#B8430F" stroke-width="1" stroke-opacity="0.11"/><line x1="0" y1="306" x2="1200" y2="306" stroke="#B8430F" stroke-width="1" stroke-opacity="0.11"/><line x1="0" y1="340" x2="1200" y2="340" stroke="#B8430F" stroke-width="1" stroke-opacity="0.11"/><line x1="0" y1="374" x2="1200" y2="374" stroke="#B8430F" stroke-width="1" stroke-opacity="0.11"/><line x1="0" y1="408" x2="1200" y2="408" stroke="#B8430F" stroke-width="1" stroke-opacity="0.11"/><line x1="0" y1="442" x2="1200" y2="442" stroke="#B8430F" stroke-width="1" stroke-opacity="0.11"/><line x1="0" y1="476" x2="1200" y2="476" stroke="#B8430F" stroke-width="1" stroke-opacity="0.11"/><line x1="0" y1="510" x2="1200" y2="510" stroke="#B8430F" stroke-width="1" stroke-opacity="0.11"/><line x1="0" y1="544" x2="1200" y2="544" stroke="#B8430F" stroke-width="1" stroke-opacity="0.11"/><line x1="0" y1="578" x2="1200" y2="578" stroke="#B8430F" stroke-width="1" stroke-opacity="0.11"/><line x1="0" y1="612" x2="1200" y2="612" stroke="#B8430F" stroke-width="1" stroke-opacity="0.11"/><line x1="0" y1="646" x2="1200" y2="646" stroke="#B8430F" stroke-width="1" stroke-opacity="0.11"/><line x1="0" y1="680" x2="1200" y2="680" stroke="#B8430F" stroke-width="1" stroke-opacity="0.11"/><line x1="0" y1="714" x2="1200" y2="714" stroke="#B8430F" stroke-width="1" stroke-opacity="0.11"/><line x1="0" y1="748" x2="1200" y2="748" stroke="#B8430F" stroke-width="1" stroke-opacity="0.11"/><line x1="0" y1="782" x2="1200" y2="782" stroke="#B8430F" stroke-width="1" stroke-opacity="0.11"/><line x1="0" y1="816" x2="1200" y2="816" stroke="#B8430F" stroke-width="1" stroke-opacity="0.11"/><line x1="0" y1="850" x2="1200" y2="850" stroke="#B8430F" stroke-width="1" stroke-opacity="0.11"/><line x1="0" y1="884" x2="1200" y2="884" stroke="#B8430F" stroke-width="1" stroke-opacity="0.11"/><rect x="137" y="144" width="168" height="24" fill="#F2895C" opacity="0.49"/><rect x="137" y="195" width="202" height="5" rx="2.5" fill="#B8430F" opacity="0.29"/><rect x="137" y="229" width="185" height="5" rx="2.5" fill="#B8430F" opacity="0.29"/><rect x="137" y="263" width="175" height="5" rx="2.5" fill="#B8430F" opacity="0.29"/><rect x="137" y="297" width="201" height="5" rx="2.5" fill="#B8430F" opacity="0.29"/><rect x="137" y="331" width="184" height="5" rx="2.5" fill="#B8430F" opacity="0.29"/><rect x="137" y="365" width="173" height="5" rx="2.5" fill="#B8430F" opacity="0.29"/><rect x="126" y="457" width="268" height="24" fill="#F2895C" opacity="0.49"/><rect x="126" y="508" width="350" height="5" rx="2.5" fill="#B8430F" opacity="0.29"/><rect x="126" y="542" width="366" height="5" rx="2.5" fill="#B8430F" opacity="0.29"/><rect x="207" y="634" width="145" height="24" fill="#F2895C" opacity="0.49"/><rect x="207" y="685" width="228" height="5" rx="2.5" fill="#B8430F" opacity="0.29"/><rect x="207" y="719" width="158" height="5" rx="2.5" fill="#B8430F" opacity="0.29"/><rect x="207" y="753" width="139" height="5" rx="2.5" fill="#B8430F" opacity="0.29"/><rect x="207" y="787" width="207" height="5" rx="2.5" fill="#B8430F" opacity="0.29"/><rect x="122" y="108" width="220" height="24" fill="#F2895C" opacity="0.49"/><rect x="122" y="159" width="305" height="5" rx="2.5" fill="#B8430F" opacity="0.29"/><rect x="122" y="193" width="195" height="5" rx="2.5" fill="#B8430F" opacity="0.29"/><rect x="122" y="227" width="334" height="5" rx="2.5" fill="#B8430F" opacity="0.29"/><rect x="122" y="261" width="323" height="5" rx="2.5" fill="#B8430F" opacity="0.29"/><rect x="396" y="353" width="155" height="24" fill="#F2895C" opacity="0.49"/><rect x="396" y="404" width="194" height="5" rx="2.5" fill="#B8430F" opacity="0.29"/><rect x="396" y="438" width="161" height="5" rx="2.5" fill="#B8430F" opacity="0.29"/><rect x="396" y="472" width="246" height="5" rx="2.5" fill="#B8430F" opacity="0.29"/><rect x="396" y="506" width="139" height="5" rx="2.5" fill="#B8430F" opacity="0.29"/><rect x="396" y="540" width="163" height="5" rx="2.5" fill="#B8430F" opacity="0.29"/><rect x="396" y="574" width="170" height="5" rx="2.5" fill="#B8430F" opacity="0.29"/><path d="M0,702 C360,360 744,855 1200,450" fill="none" stroke="#F2895C" stroke-width="2.4" stroke-opacity="0.62"/><radialGradient id="bl" cx="0.72" cy="0.3" r="0.8"><stop offset="0" stop-color="#B8430F" stop-opacity="0.42"/><stop offset="1" stop-color="#0A0908" stop-opacity="0"/></radialGradient><rect width="1200" height="900" fill="url(#bl)"/><linearGradient id="vg2" x1="0" y1="1" x2="0" y2="0"><stop offset="0" stop-color="#0A0908" stop-opacity="0.88"/><stop offset="0.34" stop-color="#0A0908" stop-opacity="0.34"/><stop offset="0.72" stop-color="#0A0908" stop-opacity="0"/></linearGradient><rect width="1200" height="900" fill="url(#vg2)"/></svg>