<svg xmlns="http://www.w3.org/2000/svg" viewBox="0 0 1200 900" width="1200" height="900" preserveAspectRatio="xMidYMid slice"><defs></defs><rect width="1200" height="900" fill="#0A0908"/><path d="M200,316 L300,316 L300,450 L400,450" fill="none" stroke="#B8430F" stroke-width="1.6" stroke-opacity="0.46" stroke-linejoin="round"/><path d="M389,445 L400,450 L389,455" fill="none" stroke="#F2895C" stroke-width="1.6" stroke-opacity="0.65" stroke-linejoin="round"/><path d="M400,450 L500,450 L500,594 L600,594" fill="none" stroke="#B8430F" stroke-width="1.6" stroke-opacity="0.46" stroke-linejoin="round"/><path d="M589,589 L600,594 L589,599" fill="none" stroke="#F2895C" stroke-width="1.6" stroke-opacity="0.65" stroke-linejoin="round"/><path d="M800,441 L900,441 L900,206 L1000,206" fill="none" stroke="#B8430F" stroke-width="1.6" stroke-opacity="0.46" stroke-linejoin="round"/><path d="M989,201 L1000,206 L989,211" fill="none" stroke="#F2895C" stroke-width="1.6" stroke-opacity="0.65" stroke-linejoin="round"/><path d="M800,441 L900,441 L900,463 L1000,463" fill="none" stroke="#B8430F" stroke-width="1.6" stroke-opacity="0.46" stroke-linejoin="round"/><path d="M989,458 L1000,463 L989,468" fill="none" stroke="#F2895C" stroke-width="1.6" stroke-opacity="0.65" stroke-linejoin="round"/><rect x="174" y="301" width="52" height="30" rx="15" fill="#0A0908" stroke="#B8430F" stroke-width="1.5" stroke-opacity="0.32"/><rect x="174" y="571" width="52" height="30" rx="15" fill="#0A0908" stroke="#B8430F" stroke-width="1.5" stroke-opacity="0.32"/><rect x="374" y="435" width="52" height="30" rx="15" fill="#0A0908" stroke="#B8430F" stroke-width="1.5" stroke-opacity="0.32"/><rect x="574" y="294" width="52" height="30" rx="15" fill="#0A0908" stroke="#F2895C" stroke-width="2.2" stroke-opacity="0.55"/><rect x="574" y="579" width="52" height="30" rx="15" fill="#0A0908" stroke="#F2895C" stroke-width="2.2" stroke-opacity="0.55"/><rect x="774" y="426" width="52" height="30" rx="15" fill="#0A0908" stroke="#B8430F" stroke-width="1.5" stroke-opacity="0.32"/><rect x="974" y="191" width="52" height="30" rx="15" fill="#0A0908" stroke="#F2895C" stroke-width="2.2" stroke-opacity="0.55"/><rect x="974" y="448" width="52" height="30" rx="15" fill="#0A0908" stroke="#B8430F" stroke-width="1.5" stroke-opacity="0.32"/><rect x="974" y="651" width="52" height="30" rx="15" fill="#0A0908" stroke="#B8430F" stroke-width="1.5" stroke-opacity="0.32"/><radialGradient id="bl" cx="0.5" cy="0.32" r="0.8"><stop offset="0" stop-color="#B8430F" stop-opacity="0.42"/><stop offset="1" stop-color="#0A0908" stop-opacity="0"/></radialGradient><rect width="1200" height="900" fill="url(#bl)"/><linearGradient id="vg2" x1="0" y1="1" x2="0" y2="0"><stop offset="0" stop-color="#0A0908" stop-opacity="0.88"/><stop offset="0.34" stop-color="#0A0908" stop-opacity="0.34"/><stop offset="0.72" stop-color="#0A0908" stop-opacity="0"/></linearGradient><rect width="1200" height="900" fill="url(#vg2)"/></svg>