<svg xmlns="http://www.w3.org/2000/svg" viewBox="0 0 2400 1400" width="2400" height="1400" preserveAspectRatio="xMidYMid slice"><defs></defs><rect width="2400" height="1400" fill="#0A0908"/><line x1="0" y1="34" x2="2400" y2="34" stroke="#B8430F" stroke-width="1" stroke-opacity="0.11"/><line x1="0" y1="68" x2="2400" y2="68" stroke="#B8430F" stroke-width="1" stroke-opacity="0.11"/><line x1="0" y1="102" x2="2400" y2="102" stroke="#B8430F" stroke-width="1" stroke-opacity="0.11"/><line x1="0" y1="136" x2="2400" y2="136" stroke="#B8430F" stroke-width="1" stroke-opacity="0.11"/><line x1="0" y1="170" x2="2400" y2="170" stroke="#B8430F" stroke-width="1" stroke-opacity="0.11"/><line x1="0" y1="204" x2="2400" y2="204" stroke="#B8430F" stroke-width="1" stroke-opacity="0.11"/><line x1="0" y1="238" x2="2400" y2="238" stroke="#B8430F" stroke-width="1" stroke-opacity="0.11"/><line x1="0" y1="272" x2="2400" y2="272" stroke="#B8430F" stroke-width="1" stroke-opacity="0.11"/><line x1="0" y1="306" x2="2400" y2="306" stroke="#B8430F" stroke-width="1" stroke-opacity="0.11"/><line x1="0" y1="340" x2="2400" y2="340" stroke="#B8430F" stroke-width="1" stroke-opacity="0.11"/><line x1="0" y1="374" x2="2400" y2="374" stroke="#B8430F" stroke-width="1" stroke-opacity="0.11"/><line x1="0" y1="408" x2="2400" y2="408" stroke="#B8430F" stroke-width="1" stroke-opacity="0.11"/><line x1="0" y1="442" x2="2400" y2="442" stroke="#B8430F" stroke-width="1" stroke-opacity="0.11"/><line x1="0" y1="476" x2="2400" y2="476" stroke="#B8430F" stroke-width="1" stroke-opacity="0.11"/><line x1="0" y1="510" x2="2400" y2="510" stroke="#B8430F" stroke-width="1" stroke-opacity="0.11"/><line x1="0" y1="544" x2="2400" y2="544" stroke="#B8430F" stroke-width="1" stroke-opacity="0.11"/><line x1="0" y1="578" x2="2400" y2="578" stroke="#B8430F" stroke-width="1" stroke-opacity="0.11"/><line x1="0" y1="612" x2="2400" y2="612" stroke="#B8430F" stroke-width="1" stroke-opacity="0.11"/><line x1="0" y1="646" x2="2400" y2="646" stroke="#B8430F" stroke-width="1" stroke-opacity="0.11"/><line x1="0" y1="680" x2="2400" y2="680" stroke="#B8430F" stroke-width="1" stroke-opacity="0.11"/><line x1="0" y1="714" x2="2400" y2="714" stroke="#B8430F" stroke-width="1" stroke-opacity="0.11"/><line x1="0" y1="748" x2="2400" y2="748" stroke="#B8430F" stroke-width="1" stroke-opacity="0.11"/><line x1="0" y1="782" x2="2400" y2="782" stroke="#B8430F" stroke-width="1" stroke-opacity="0.11"/><line x1="0" y1="816" x2="2400" y2="816" stroke="#B8430F" stroke-width="1" stroke-opacity="0.11"/><line x1="0" y1="850" x2="2400" y2="850" stroke="#B8430F" stroke-width="1" stroke-opacity="0.11"/><line x1="0" y1="884" x2="2400" y2="884" stroke="#B8430F" stroke-width="1" stroke-opacity="0.11"/><line x1="0" y1="918" x2="2400" y2="918" stroke="#B8430F" stroke-width="1" stroke-opacity="0.11"/><line x1="0" y1="952" x2="2400" y2="952" stroke="#B8430F" stroke-width="1" stroke-opacity="0.11"/><line x1="0" y1="986" x2="2400" y2="986" stroke="#B8430F" stroke-width="1" stroke-opacity="0.11"/><line x1="0" y1="1020" x2="2400" y2="1020" stroke="#B8430F" stroke-width="1" stroke-opacity="0.11"/><line x1="0" y1="1054" x2="2400" y2="1054" stroke="#B8430F" stroke-width="1" stroke-opacity="0.11"/><line x1="0" y1="1088" x2="2400" y2="1088" stroke="#B8430F" stroke-width="1" stroke-opacity="0.11"/><line x1="0" y1="1122" x2="2400" y2="1122" stroke="#B8430F" stroke-width="1" stroke-opacity="0.11"/><line x1="0" y1="1156" x2="2400" y2="1156" stroke="#B8430F" stroke-width="1" stroke-opacity="0.11"/><line x1="0" y1="1190" x2="2400" y2="1190" stroke="#B8430F" stroke-width="1" stroke-opacity="0.11"/><line x1="0" y1="1224" x2="2400" y2="1224" stroke="#B8430F" stroke-width="1" stroke-opacity="0.11"/><line x1="0" y1="1258" x2="2400" y2="1258" stroke="#B8430F" stroke-width="1" stroke-opacity="0.11"/><line x1="0" y1="1292" x2="2400" y2="1292" stroke="#B8430F" stroke-width="1" stroke-opacity="0.11"/><line x1="0" y1="1326" x2="2400" y2="1326" stroke="#B8430F" stroke-width="1" stroke-opacity="0.11"/><line x1="0" y1="1360" x2="2400" y2="1360" stroke="#B8430F" stroke-width="1" stroke-opacity="0.11"/><line x1="0" y1="1394" x2="2400" y2="1394" stroke="#B8430F" stroke-width="1" stroke-opacity="0.11"/><rect x="295" y="224" width="388" height="24" fill="#F2895C" opacity="0.49"/><rect x="295" y="275" width="546" height="5" rx="2.5" fill="#B8430F" opacity="0.29"/><rect x="295" y="309" width="340" height="5" rx="2.5" fill="#B8430F" opacity="0.29"/><rect x="295" y="343" width="350" height="5" rx="2.5" fill="#B8430F" opacity="0.29"/><rect x="295" y="377" width="498" height="5" rx="2.5" fill="#B8430F" opacity="0.29"/><rect x="295" y="411" width="579" height="5" rx="2.5" fill="#B8430F" opacity="0.29"/><rect x="295" y="445" width="433" height="5" rx="2.5" fill="#B8430F" opacity="0.29"/><rect x="838" y="537" width="412" height="24" fill="#F2895C" opacity="0.49"/><rect x="838" y="588" width="450" height="5" rx="2.5" fill="#B8430F" opacity="0.29"/><rect x="838" y="622" width="546" height="5" rx="2.5" fill="#B8430F" opacity="0.29"/><rect x="993" y="714" width="495" height="24" fill="#F2895C" opacity="0.49"/><rect x="993" y="765" width="585" height="5" rx="2.5" fill="#B8430F" opacity="0.29"/><rect x="993" y="799" width="686" height="5" rx="2.5" fill="#B8430F" opacity="0.29"/><rect x="879" y="890" width="657" height="24" fill="#F2895C" opacity="0.49"/><rect x="879" y="941" width="791" height="5" rx="2.5" fill="#B8430F" opacity="0.29"/><rect x="879" y="975" width="966" height="5" rx="2.5" fill="#B8430F" opacity="0.29"/><rect x="340" y="1067" width="579" height="24" fill="#F2895C" opacity="0.49"/><rect x="340" y="1118" width="831" height="5" rx="2.5" fill="#B8430F" opacity="0.29"/><rect x="340" y="1152" width="933" height="5" rx="2.5" fill="#B8430F" opacity="0.29"/><path d="M0,1092 C720,560 1488,1330 2400,700" fill="none" stroke="#F2895C" stroke-width="2.4" stroke-opacity="0.62"/><radialGradient id="bl" cx="0.72" cy="0.3" r="0.8"><stop offset="0" stop-color="#B8430F" stop-opacity="0.42"/><stop offset="1" stop-color="#0A0908" stop-opacity="0"/></radialGradient><rect width="2400" height="1400" fill="url(#bl)"/><linearGradient id="vg2" x1="0" y1="1" x2="0" y2="0"><stop offset="0" stop-color="#0A0908" stop-opacity="0.88"/><stop offset="0.34" stop-color="#0A0908" stop-opacity="0.34"/><stop offset="0.72" stop-color="#0A0908" stop-opacity="0"/></linearGradient><rect width="2400" height="1400" fill="url(#vg2)"/></svg>